<svg xmlns:xlink="http://www.w3.org/1999/xlink" xmlns="http://www.w3.org/2000/svg" viewBox="0 0 48 48"> <defs fill="#03a9f4"> <linearGradient id="a" fill="#03a9f4"> <stop offset="0" fill="#03a9f4"/> <stop stop-opacity="0" offset="1" fill="#03a9f4"/> </linearGradient> <linearGradient id="l" x2="0" y1="-150.7" y2="327.66" gradientUnits="userSpaceOnUse" fill="#03a9f4"> <stop stop-opacity="0" offset="0" fill="#03a9f4"/> <stop offset=".5" fill="#03a9f4"/> <stop stop-opacity="0" offset="1" fill="#03a9f4"/> </linearGradient> <linearGradient id="k" x1="16.25" x2="31.5" y1="12.25" y2="36.625" gradientTransform="matrix(1.1078 0 0 1 -1.8778 -.5)" gradientUnits="userSpaceOnUse" fill="#03a9f4"> <stop stop-color="#fff" offset="0" fill="#03a9f4"/> <stop stop-color="#97daf7" offset="1" fill="#03a9f4"/> </linearGradient> <linearGradient id="j" x2="0" y1="29.224" y2="35.474" gradientUnits="userSpaceOnUse" fill="#03a9f4"> <stop stop-color="#fff" offset="0" fill="#03a9f4"/> <stop stop-color="#03a9f4" offset="1" fill="#03a9f4"/> </linearGradient> <linearGradient id="i" x1="26.504" x2="28.364" y1="35.82" y2="36.57" gradientUnits="userSpaceOnUse" xlink:href="#a" fill="#03a9f4"/> <linearGradient id="h" x1="22.687" x2="21.408" y1="36.39" y2="35.74" gradientTransform="matrix(-.97769 .21008 .21008 .97769 61.568 -4.4483)" gradientUnits="userSpaceOnUse" xlink:href="#a" fill="#03a9f4"/> <radialGradient id="g" cx="55" cy="125" r="14.375" gradientUnits="userSpaceOnUse" fill="#03a9f4"> <stop stop-color="#fff" offset="0" fill="#03a9f4"/> <stop stop-color="#03a9f4" stop-opacity=".89109" offset=".5" fill="#03a9f4"/> <stop stop-color="#71cdf7" stop-opacity="0" offset="1" fill="#03a9f4"/> </radialGradient> <radialGradient id="d" cx="16.215" cy="19.836" r="13.565" gradientTransform="matrix(1 0 0 .68192 19.762 14.904)" gradientUnits="userSpaceOnUse" fill="#03a9f4"> <stop stop-color="#3f51b5" offset="0" fill="#03a9f4"/> <stop stop-color="#03a9f4" offset="1" fill="#03a9f4"/> </radialGradient> <radialGradient id="b" cx="29.345" cy="17.064" r="9.1621" gradientTransform="matrix(.788 3.8776e-16 -3.8776e-16 .788 6.2212 3.6176)" gradientUnits="userSpaceOnUse" fill="#03a9f4"> <stop stop-color="#8ad7fa" offset="0" fill="#03a9f4"/> <stop stop-color="#03a9f4" offset="1" fill="#03a9f4"/> </radialGradient> <radialGradient id="e" cx="605.71" cy="486.65" r="117.14" gradientTransform="matrix(-2.7744 0 0 1.9697 112.76 -872.89)" gradientUnits="userSpaceOnUse" xlink:href="#a" fill="#03a9f4"/> <radialGradient id="f" cx="605.71" cy="486.65" r="117.14" gradientTransform="matrix(2.7744 0 0 1.9697 -1891.6 -872.89)" gradientUnits="userSpaceOnUse" xlink:href="#a" fill="#03a9f4"/> <radialGradient id="c" cx="31.113" cy="19.009" r="8.6621" gradientUnits="userSpaceOnUse" xlink:href="#a" fill="#03a9f4"/> </defs> <g transform="matrix(.02496 0 0 .014857 46.772 36.609)"> <path d="m-1559.3-150.7h1339.6v478.36h-1339.6z" fill="url(#l)" opacity=".40206"/> <path d="m-219.62-150.68v478.33c142.87 0.90045 345.4-107.17 345.4-239.2s-159.44-239.13-345.4-239.13z" fill="url(#f)" opacity=".40206"/> <path d="m-1559.3-150.68v478.33c-142.87 0.90045-345.4-107.17-345.4-239.2s159.44-239.13 345.4-239.13z" fill="url(#e)" opacity=".40206"/> </g> <path d="m5.3035 8.5h38.398a2.75 2.75 0 0 1 2.75 2.75v24.5a2.75 2.75 0 0 1-2.75 2.75h-38.398a2.75 2.75 0 0 1-2.75-2.75v-24.5a2.75 2.75 0 0 1 2.75-2.75" fill="url(#k)" fill-rule="evenodd" stroke="#03a9f4"/> <path d="m5.2977 9.6293h38.401a1.75 1.75 0 0 1 1.75 1.75v24.241a1.75 1.75 0 0 1-1.75 1.75h-38.401a1.75 1.75 0 0 1-1.75-1.75v-24.241a1.75 1.75 0 0 1 1.75-1.75" fill="none" stroke="#fff"/> <g transform="matrix(.4348 0 0 .4348 -4.1223 8.4414)"> <path d="m32.623 41.306h10.607c3.0052 0 5.9805-1.1019 7.0711-4.2426 1.0356-2.9825 0.17678-8.6621-6.5407-13.258h-12.551c-6.7175 4.2426-7.557 10.045-6.0104 13.435 1.5756 3.4538 4.2426 4.0659 7.4246 4.0659z" fill="url(#d)" fill-rule="evenodd" stroke="#03a9f4" stroke-linecap="round" stroke-linejoin="round" stroke-width="2.2999"/> <path d="m37.695 26.457s-2.1513 1.6603-1.966 3.6605c-2.0412-1.8008-2.0999-5.2515-2.0999-5.2515l4.0659 1.591z" fill="#03a9f4" fill-rule="evenodd"/> <path d="m33.211 39.483h9.2971c2.3788 0 4.734-0.87226 5.5973-3.3584 0.81979-2.3608-0.08536-6.8567-5.4028-10.495h-10.386c-5.3174 3.3584-6.2072 7.9512-4.983 10.635 1.2472 2.7339 3.3584 3.2184 5.8771 3.2184z" fill="none" opacity=".21519" stroke="#fff" stroke-linecap="round" stroke-linejoin="round" stroke-width="2.2999"/> <path d="m38.673 26.457s2.1513 1.6603 1.966 3.6605c2.0412-1.8008 2.0999-5.2515 2.0999-5.2515l-4.0659 1.591z" fill="#03a9f4" fill-rule="evenodd"/> <path transform="translate(6.5123 3.1703)" d="m39.775 19.009a8.6621 8.6621 0 1 1-17.324 0 8.6621 8.6621 0 1 1 17.324 0z" fill="url(#c)" fill-rule="evenodd"/> <path transform="translate(6.6373 -.32967)" d="m39.775 19.009a8.6621 8.6621 0 1 1-17.324 0 8.6621 8.6621 0 1 1 17.324 0z" fill="url(#b)" fill-rule="evenodd" stroke="#2196f3" stroke-linecap="round" stroke-linejoin="round" stroke-width="2.2999"/> <path transform="matrix(.74738 0 0 .74738 14.497 4.4724)" d="m39.775 19.009a8.6621 8.6621 0 1 1-17.324 0 8.6621 8.6621 0 1 1 17.324 0z" fill="none" opacity=".12658" stroke="#fff" stroke-linecap="round" stroke-linejoin="round" stroke-width="3.0773"/> <path d="m42.346 33.705h4.2426l-2.4749-2.2981-0.53033 0.70711-0.53033-0.53033-0.70711 2.1213z" fill="url(#j)" fill-rule="evenodd"/> <path d="m28.31 40.272c-1.2476-0.54497-1.806-1.8583-1.806-1.8583 0.84128-4.0691 3.7199-7.0462 3.7199-7.0462s-2.2793 6.4115-1.9139 8.9045z" fill="url(#i)" fill-rule="evenodd" opacity=".22785"/> <path d="m47.216 39.414c1.2312-0.58098 1.8044-2.0023 1.8044-2.0023-0.95912-4.043-3.9762-6.8428-3.9762-6.8428s2.4646 6.3426 2.1718 8.8451z" fill="url(#h)" fill-rule="evenodd" opacity=".22785"/> </g> </svg>